<?xml version="1.0" encoding="UTF-8" standalone="no"?>
<!DOCTYPE svg PUBLIC "-//W3C//DTD SVG 1.1//EN" "http://www.w3.org/Graphics/SVG/1.1/DTD/svg11.dtd">
<svg width="100%" height="100%" viewBox="0 0 1000 1000" version="1.1" xmlns="http://www.w3.org/2000/svg" xmlns:xlink="http://www.w3.org/1999/xlink" xml:space="preserve" xmlns:serif="http://www.serif.com/" style="fill-rule:evenodd;clip-rule:evenodd;stroke-linejoin:round;stroke-miterlimit:2;">
    <g>
        <g transform="matrix(1,0,0,1,-132.547,107.169)">
            <circle cx="632.547" cy="392.831" r="352.765" style="fill:rgb(26,26,26);"/>
        </g>
        <path d="M385.958,465.404C399.883,479.287 416.969,479.232 424.992,458.456C441.068,416.83 421.314,317.532 350.033,332.458C260.672,351.169 224.385,482.256 237.023,560.94C242.71,596.353 262.389,641.373 299.533,653.869C345.946,669.484 390.021,638.155 402.565,593.474C406.004,581.224 411.602,561.291 404.149,549.383C394.757,534.375 369.762,540.612 361.282,553.165C351.975,566.943 354.074,585.231 343.095,598.391C320.816,625.096 285.044,595.739 274.662,572.615C269.817,561.822 266.87,550.149 265.092,538.478C257.743,490.251 273.961,429.493 308.648,394.328C329.376,373.315 383.892,360.671 387.095,404.943C388.68,426.853 368.859,448.358 385.958,465.404ZM487.073,369.938C476.53,424.59 475.601,515.926 472.963,577.17C471.406,613.311 462.226,620.756 470.458,641.195C478.266,660.58 525.079,646.168 526.763,621.028C530.575,564.095 529.305,544.224 529.704,518.58C529.83,510.508 527.389,451.106 529.625,420.786C530.624,407.234 547.012,403.681 550.807,402.498C554.031,401.493 579.083,400.484 587.826,409.52C599.599,421.688 600.886,480.477 603.143,515.364C605.459,551.154 605.105,596.221 607.575,632.508C608.314,643.37 611.522,649.395 626.111,647.836C641.609,646.18 642.771,638.704 641.963,625.907C639.834,592.222 638.487,548.853 639.354,513.938C640.348,473.919 643.281,444.414 651.896,415.458C656.477,400.06 673.106,397.519 683.256,396.979C689.515,396.646 706.419,400.656 708.707,414.316C713.286,441.657 701.243,505.446 700.029,514.999C694.536,558.232 693.245,599.632 694.92,630.701C696.471,659.492 748.483,659.886 753.975,641.754C761.4,617.241 753.365,624.164 750.678,580.191C746.985,519.731 752.324,433.917 748.73,397.387C746.477,374.483 736.211,346.853 711.51,338.94C688.269,331.494 658.053,326.097 645.997,347.747C637.369,363.241 637.939,395.877 617.46,391.428C604.599,388.634 599.325,370.404 592.639,357.913C574.854,324.682 568.38,326.57 536.471,332.097C505.917,337.389 489.716,355.106 487.073,369.938Z" style="fill:white;"/>
        <path d="M380.31,471.07C389.326,480.059 399.595,483.999 408.679,482.866C418.097,481.69 427.069,475.285 432.455,461.338C441.063,439.05 440.325,401.308 427.646,371.149C414.334,339.484 388.467,316.236 348.393,324.627C310.434,332.576 281.29,359.363 261.085,394.301C231.621,445.247 221.296,513.469 229.124,562.208C235.229,600.223 257.11,648.037 296.982,661.452C347.898,678.582 396.506,644.653 410.267,595.637C412.474,587.777 415.441,576.946 415.797,566.799C416.077,558.784 414.708,551.174 410.931,545.139C404.476,534.825 392.863,531.303 381.205,533.024C370.478,534.608 360.014,540.75 354.653,548.687C349.474,556.353 347.298,565.21 345.06,574.046C343.341,580.833 341.645,587.641 336.952,593.266C328.678,603.184 317.834,602.237 308.158,597.118C296.694,591.052 286.529,579.514 281.96,569.338C277.41,559.203 274.671,548.233 273.001,537.273C266.002,491.342 281.308,433.436 314.343,399.946C323.442,390.722 339.974,383.375 354.566,383.153C360.913,383.056 366.906,384.298 371.401,387.897C375.819,391.434 378.515,397.212 379.116,405.52C379.847,415.62 375.373,425.57 372.958,435.016C369.621,448.066 369.42,460.213 380.31,471.07L380.31,471.07ZM479.208,368.473C468.614,423.442 467.622,515.253 464.97,576.826C464.211,594.447 461.569,605.069 460.144,613.78C458.444,624.18 458.246,632.287 463.037,644.184C467.43,655.09 480.017,659.845 494.391,657.616C505.191,655.942 516.778,650.476 524.597,642.589C530.435,636.7 534.214,629.496 534.745,621.563C538.572,564.402 537.302,544.451 537.703,518.705C537.828,510.67 535.378,451.55 537.603,421.374C537.881,417.609 540.579,415.437 543.188,413.92C547.211,411.581 551.562,410.642 553.188,410.136C553.131,410.153 552.955,410.206 552.955,410.206C552.955,410.206 563.267,409.522 570.635,410.747C575.093,411.488 579.592,412.515 582.076,415.083C584.917,418.019 586.473,424.516 588.044,432.669C592.549,456.043 593.599,491.75 595.16,515.881C597.476,551.679 597.123,596.756 599.593,633.051C600.124,640.851 602.14,646.704 606.044,650.538C610.013,654.435 616.311,656.928 626.961,655.79C635.685,654.858 640.996,652.147 644.378,648.639C649.299,643.535 650.609,635.885 649.947,625.403C647.832,591.929 646.49,548.832 647.351,514.136C648.324,474.967 651.132,446.081 659.564,417.739C661.087,412.618 664.708,409.722 668.697,407.975C673.75,405.761 679.406,405.195 683.681,404.968C685.93,404.848 690.064,405.626 693.87,407.544C697.027,409.135 700.134,411.565 700.817,415.638C705.291,442.352 693.278,504.657 692.093,513.991C686.532,557.761 685.236,599.676 686.931,631.132C688.105,652.912 711.2,663.282 731.77,661.972C739.833,661.459 747.3,659.191 752.606,655.647C757.133,652.624 760.242,648.659 761.631,644.073C765.965,629.767 765.605,624.618 763.952,616.646C762.577,610.019 759.967,601.034 758.663,579.703C754.964,519.145 760.291,433.193 756.692,396.604C754.154,370.812 741.766,340.233 713.951,331.321C698.797,326.467 680.883,322.657 666.172,325.273C654.77,327.301 645.101,332.914 639.008,343.855C634.52,351.914 632.298,364.389 628.661,374.314C626.691,379.69 624.929,384.864 619.159,383.611C614.816,382.667 612.189,378.653 609.649,374.285C605.934,367.897 602.994,360.306 599.692,354.138C589.419,334.944 581.752,326.453 572.706,322.998C563.892,319.631 553.066,321.104 535.106,324.214C500.107,330.276 482.26,351.49 479.205,368.487L479.208,368.473ZM391.606,459.739C385.392,453.544 386.555,446.426 388.46,438.979C391.284,427.933 395.929,416.177 395.074,404.366C394.074,390.536 388.755,381.295 381.402,375.407C374.126,369.582 364.595,366.998 354.322,367.155C335.672,367.439 314.582,376.921 302.952,388.71C266.614,425.549 249.484,489.159 257.183,539.683C259.07,552.065 262.223,564.441 267.364,575.891C273.177,588.839 286.089,603.542 300.676,611.26C317.054,619.926 335.231,620.305 349.238,603.516C355.524,595.981 358.268,587.066 360.571,577.974C362.355,570.93 363.782,563.755 367.911,557.643C371.03,553.026 377.302,549.774 383.542,548.853C388.854,548.068 394.427,548.927 397.368,553.627C399.553,557.119 399.969,561.601 399.806,566.239C399.497,575.07 396.783,584.471 394.863,591.312C383.536,631.659 343.994,660.387 302.084,646.287C267.666,634.708 250.192,592.485 244.921,559.671C237.585,513.99 247.32,450.061 274.935,402.311C292.783,371.45 318.143,347.309 351.672,340.288C382.881,333.753 402.53,352.69 412.897,377.35C423.897,403.516 424.998,436.236 417.529,455.574C414.887,462.417 411.318,466.412 406.698,466.989C401.747,467.607 396.52,464.637 391.606,459.739L391.606,459.739ZM494.928,371.453C494.935,371.416 494.942,371.379 494.949,371.341C497.206,358.678 511.748,344.498 537.836,339.98C551.791,337.563 560.148,335.328 566.997,337.944C573.616,340.473 578.068,347.642 585.586,361.688C589.738,369.446 593.427,379.31 598.539,386.61C603.065,393.074 608.69,397.709 615.762,399.246C620.916,400.366 625.212,399.843 628.866,398.326C633.986,396.199 637.996,391.921 640.986,386.086C646.036,376.234 647.848,360.867 652.986,351.639C657.556,343.434 665.774,340.751 674.844,340.428C685.933,340.033 698.3,343.109 709.069,346.559C730.661,353.476 738.799,378.15 740.769,398.171C744.356,434.641 739.005,520.317 742.693,580.679C743.808,598.918 745.819,608.712 747.327,615.526C749.192,623.957 750.128,626.856 746.318,639.435C745.801,641.144 744.14,642.234 742.234,643.207C739.062,644.827 735.02,645.733 730.753,646.005C724.084,646.429 716.828,645.295 711.162,642.195C706.652,639.726 703.211,635.892 702.908,630.271C701.255,599.587 702.541,558.703 707.965,516.007C709.207,506.235 721.281,440.963 716.597,412.995C714.991,403.405 708.505,397.003 701.071,393.256C694.288,389.837 686.84,388.777 682.831,388.99C670.129,389.666 649.961,393.906 644.228,413.177C635.431,442.748 632.371,472.871 631.356,513.739C630.484,548.873 631.837,592.515 633.979,626.411C634.145,629.05 634.236,631.425 634.061,633.531C633.927,635.145 633.808,636.55 632.859,637.535C631.431,639.016 628.946,639.487 625.261,639.881C623.083,640.114 621.245,640.155 619.694,639.951C618.642,639.813 617.804,639.661 617.254,639.121C615.714,637.609 615.766,635.043 615.556,631.965C613.087,595.686 613.441,550.63 611.126,514.848C609.528,490.136 608.368,453.578 603.755,429.641C601.418,417.512 597.801,408.325 593.575,403.957C589.063,399.294 581.355,396.309 573.258,394.963C562.203,393.126 550.698,394.152 548.425,394.861C545.743,395.697 537.794,397.7 531.552,402.487C526.336,406.486 522.237,412.196 521.647,420.198C519.4,450.661 521.831,510.345 521.705,518.456C521.308,543.997 522.578,563.789 518.781,620.494C518.282,627.935 511.924,633.691 504.725,637.499C498.75,640.659 491.951,642.44 486.145,642.149C482.478,641.966 479.09,641.213 477.879,638.206C474.438,629.663 474.714,623.829 475.935,616.362C477.432,607.205 480.158,596.035 480.955,577.515C483.578,516.617 484.445,425.796 494.928,371.453Z" style="fill:white;"/>
    </g>
</svg>
